{
	"asset":{
		"version":"2.0",
		"generator":"Created using the official Cinema 4D glTF Exporter 1.000x284978"
	},
	"materials":[{
		"pbrMetallicRoughness":{
			"baseColorFactor":[1.0,
			1.0,
			1.0,
			0.0],
			"metallicFactor":1.0,
			"roughnessFactor":1.0
		},
		"emissiveFactor":[0.0,
		0.0,
		0.0],
		"alphaMode":"BLEND",
		"doubleSided":false,
		"name":"Mat"
	}],
	"scenes":[{
		"nodes":[0]
	}],
	"nodes":[{
		"name":"objects.dwg",
		"translation":[4.652284145355225,
		-236.1846160888672,
		43.353511810302737],
		"rotation":[0.7071067690849304,
		0.0,
		0.0,
		-0.7071067690849304],
		"scale":[0.25,
		0.25,
		0.25],
		"children":[1]
	},
	{
		"name":"PolyFaceMesh",
		"translation":[-8.27268201858411e-12,
		-12.224266052246094,
		1021.2928466796875],
		"rotation":[0.0,
		0.0,
		0.0,
		-1.0],
		"scale":[1.0,
		1.0,
		1.0],
		"mesh":0
	}],
	"meshes":[{
		"name":"PolyFaceMesh",
		"primitives":[{
			"attributes":{
				"POSITION":1,
				"NORMAL":2
			},
			"indices":0,
			"material":0
		}]
	}],
	"accessors":[{
		"bufferView":0,
		"min":[0],
		"type":"SCALAR",
		"componentType":5123,
		"max":[16118],
		"count":24312,
		"byteOffset":0
	},
	{
		"bufferView":1,
		"min":[-432.0649108886719,
		-526.9083862304688,
		-1001.1168212890625],
		"type":"VEC3",
		"componentType":5126,
		"max":[432.0649108886719,
		526.9083862304688,
		1001.1168212890625],
		"count":16119,
		"byteOffset":0
	},
	{
		"bufferView":1,
		"min":[-1.0,
		-1.0,
		-440402432.0],
		"type":"VEC3",
		"componentType":5126,
		"max":[440399872.0,
		440396288.0,
		1.0],
		"count":16119,
		"byteOffset":12
	}],
	"bufferViews":[{
		"buffer":0,
		"byteOffset":0,
		"byteLength":48624,
		"target":34963
	},
	{
		"buffer":0,
		"byteOffset":48624,
		"byteLength":386856,
		"target":34962,
		"byteStride":24
	}],
	"buffers":[{
		"uri":"data:application/octet-stream;base64,",
		"byteLength":435480
	}]
}