{
	"asset":{
		"version":"2.0",
		"generator":"Created using the official Cinema 4D glTF Exporter 1.000x284978"
	},
	"scenes":[{
		"nodes":[0]
	}],
	"nodes":[{
		"name":"PolyFaceMesh",
		"translation":[836.2151489257813,
		112.02473449707031,
		320.4225158691406],
		"rotation":[-0.2328260838985443,
		0.667676568031311,
		0.667676568031311,
		0.2328260838985443],
		"scale":[0.25,
		0.25,
		0.25],
		"mesh":0
	}],
	"meshes":[{
		"name":"PolyFaceMesh",
		"primitives":[{
			"attributes":{
				"POSITION":1,
				"NORMAL":2
			},
			"indices":0
		}]
	}],
	"accessors":[{
		"bufferView":0,
		"min":[0],
		"type":"SCALAR",
		"componentType":5123,
		"max":[8838],
		"count":24312,
		"byteOffset":0
	},
	{
		"bufferView":1,
		"min":[-432.0649108886719,
		-526.9083862304688,
		-1001.1168212890625],
		"type":"VEC3",
		"componentType":5126,
		"max":[432.0649108886719,
		526.9083862304688,
		1001.1168212890625],
		"count":8839,
		"byteOffset":0
	},
	{
		"bufferView":1,
		"min":[-1.4537622949874812e38,
		-3.2831943665333186e38,
		-3.1148209573290844e38],
		"type":"VEC3",
		"componentType":5126,
		"max":[2.0044423922326265e38,
		3.0175986466626524e38,
		3.2847784227233638e38],
		"count":8839,
		"byteOffset":12
	}],
	"bufferViews":[{
		"buffer":0,
		"byteOffset":0,
		"byteLength":48624,
		"target":34963
	},
	{
		"buffer":0,
		"byteOffset":48624,
		"byteLength":212136,
		"target":34962,
		"byteStride":24
	}],
	"buffers":[{
		"uri":"data:application/octet-stream;base64,",
		"byteLength":260760
	}]
}