{
	"asset":{
		"version":"2.0",
		"generator":"Created using the official Cinema 4D glTF Exporter 1.000x284978"
	},
	"materials":[{
		"pbrMetallicRoughness":{
			"baseColorFactor":[1.0,
			1.0,
			1.0,
			0.0],
			"metallicFactor":1.0,
			"roughnessFactor":1.0
		},
		"emissiveFactor":[0.0,
		0.0,
		0.0],
		"alphaMode":"BLEND",
		"doubleSided":false,
		"name":"Mat"
	}],
	"scenes":[{
		"nodes":[0]
	}],
	"nodes":[{
		"name":"GLMan_level1",
		"mesh":0
	}],
	"meshes":[{
		"name":"GLMan_level1",
		"primitives":[{
			"attributes":{
				"POSITION":1,
				"NORMAL":2,
				"TEXCOORD_0":3
			},
			"indices":0,
			"material":0
		}]
	}],
	"accessors":[{
		"bufferView":0,
		"min":[0],
		"type":"SCALAR",
		"componentType":5123,
		"max":[26450],
		"count":130224,
		"byteOffset":0
	},
	{
		"bufferView":1,
		"min":[-83.39974975585938,
		-0.001500000013038516,
		-83.92400360107422],
		"type":"VEC3",
		"componentType":5126,
		"max":[84.32949829101563,
		473.00775146484377,
		74.49324798583985],
		"count":26451,
		"byteOffset":0
	},
	{
		"bufferView":1,
		"min":[-0.9999688267707825,
		-1.0,
		-0.9999688267707825],
		"type":"VEC3",
		"componentType":5126,
		"max":[0.9998750686645508,
		1.0,
		0.9999688267707825],
		"count":26451,
		"byteOffset":12
	},
	{
		"bufferView":1,
		"min":[0.0003000000142492354,
		0.000699999975040555],
		"type":"VEC2",
		"componentType":5126,
		"max":[0.9846000075340271,
		0.9994000196456909],
		"count":26451,
		"byteOffset":24
	}],
	"bufferViews":[{
		"buffer":0,
		"byteOffset":0,
		"byteLength":260448,
		"target":34963
	},
	{
		"buffer":0,
		"byteOffset":260448,
		"byteLength":846432,
		"target":34962,
		"byteStride":32
	}],
	"buffers":[{
		"uri":"data:application/octet-stream;base64,",
		"byteLength":1106880
	}]
}